<?xml version="1.0" standalone="no"?>
<!DOCTYPE svg PUBLIC "-//W3C//DTD SVG 20010904//EN"
 "http://www.w3.org/TR/2001/REC-SVG-20010904/DTD/svg10.dtd">
<svg version="1.0" xmlns="http://www.w3.org/2000/svg"
 width="500.000000pt" height="500.000000pt" viewBox="0 0 500.000000 500.000000"
 preserveAspectRatio="xMidYMid meet">

<g transform="translate(0.000000,500.000000) scale(0.100000,-0.100000)"
fill="#000000" stroke="none">
<path d="M2921 2630 c-108 -17 -190 -59 -258 -133 -49 -53 -75 -100 -99 -182
-16 -54 -18 -123 -21 -672 -5 -678 -1 -727 55 -848 75 -160 210 -235 422 -235
239 0 386 98 453 303 17 52 21 97 25 270 l4 207 -156 0 -156 0 0 -177 c0 -192
-9 -233 -59 -278 -34 -29 -145 -33 -188 -6 -72 45 -68 3 -68 716 0 622 1 641
20 674 40 68 137 91 215 51 65 -33 74 -62 78 -242 l4 -158 154 0 154 0 0 143
c0 260 -57 410 -187 496 -92 61 -261 92 -392 71z"/>
<path d="M420 1904 c0 -446 4 -704 10 -702 5 2 132 116 282 253 l272 250 -117
3 -117 3 0 304 0 305 260 0 260 0 0 145 0 145 -425 0 -425 0 0 -706z"/>
<path d="M1400 2354 c0 -159 4 -254 10 -252 5 2 79 67 165 146 l155 143 0 109
0 110 -165 0 -165 0 0 -256z"/>
<path d="M3682 1598 l3 -1013 163 -3 162 -2 0 312 0 313 48 88 48 87 154 -400
153 -400 168 0 168 0 -15 36 c-52 124 -427 1081 -427 1089 0 6 100 211 221
458 l221 447 -166 -2 -166 -3 -204 -430 -203 -430 0 433 0 432 -165 0 -165 0
2 -1012z"/>
<path d="M2205 2245 l-150 -138 -5 -571 c-5 -548 -6 -572 -25 -605 -33 -56
-66 -74 -132 -74 -77 0 -119 22 -144 76 -17 39 -19 71 -19 455 0 226 -3 412
-6 412 -3 0 -77 -66 -165 -147 l-160 -148 3 -290 c4 -265 6 -296 26 -356 30
-92 91 -179 155 -223 66 -45 115 -62 219 -76 225 -31 425 63 505 236 51 111
53 161 51 903 l-3 684 -150 -138z"/>
<path d="M580 755 c-85 -79 -156 -151 -158 -159 -3 -14 18 -16 162 -16 l166 0
0 160 c0 88 -3 160 -7 159 -5 0 -78 -65 -163 -144z"/>
</g>
</svg>
