<svg width="60" height="60" viewBox="0 0 60 60" fill="none" xmlns="http://www.w3.org/2000/svg">
<rect width="60" height="60" rx="30" fill="#1EBED7"/>
<path d="M25.3346 30.5C25.3346 27.6466 27.6471 25.3329 30.5006 25.3329C33.3541 25.3329 35.6679 27.6466 35.6679 30.5C35.6679 33.3534 33.3541 35.6671 30.5006 35.6671C27.6471 35.6671 25.3346 33.3534 25.3346 30.5ZM22.5412 30.5C22.5412 34.8958 26.1046 38.4591 30.5006 38.4591C34.8966 38.4591 38.46 34.8958 38.46 30.5C38.46 26.1042 34.8966 22.5409 30.5006 22.5409C26.1046 22.5409 22.5412 26.1042 22.5412 30.5ZM36.915 22.2254C36.9149 22.5932 37.0238 22.9529 37.2281 23.2588C37.4324 23.5648 37.7228 23.8033 38.0626 23.9442C38.4024 24.0851 38.7764 24.1221 39.1373 24.0505C39.4981 23.9789 39.8296 23.8019 40.0898 23.5418C40.3501 23.2818 40.5274 22.9505 40.5993 22.5897C40.6712 22.2289 40.6345 21.8549 40.4939 21.515C40.3532 21.1751 40.1149 20.8845 39.8091 20.68C39.5033 20.4755 39.1437 20.3662 38.7758 20.3661H38.7751C38.282 20.3663 37.8091 20.5623 37.4603 20.9109C37.1116 21.2595 36.9155 21.7323 36.915 22.2254ZM24.2384 43.1166C22.7271 43.0478 21.9057 42.7961 21.3598 42.5834C20.6361 42.3017 20.1198 41.9662 19.5769 41.424C19.034 40.8819 18.698 40.3661 18.4175 39.6424C18.2047 39.0968 17.9529 38.2752 17.8842 36.764C17.8091 35.1302 17.7941 34.6394 17.7941 30.5001C17.7941 26.3609 17.8103 25.8715 17.8842 24.2363C17.9531 22.7251 18.2066 21.9051 18.4175 21.3579C18.6992 20.6342 19.0347 20.1179 19.5769 19.575C20.119 19.0321 20.6349 18.6961 21.3598 18.4156C21.9055 18.2028 22.7271 17.9511 24.2384 17.8824C25.8723 17.8072 26.3631 17.7922 30.5006 17.7922C34.6382 17.7922 35.1295 17.8085 36.7647 17.8824C38.276 17.9512 39.096 18.2048 39.6433 18.4156C40.367 18.6961 40.8833 19.0329 41.4262 19.575C41.9691 20.1171 42.3039 20.6342 42.5856 21.3579C42.7984 21.9035 43.0502 22.7251 43.1189 24.2363C43.194 25.8715 43.209 26.3609 43.209 30.5001C43.209 34.6394 43.194 35.1288 43.1189 36.764C43.05 38.2752 42.7971 39.0965 42.5856 39.6424C42.3039 40.3661 41.9684 40.8824 41.4262 41.424C40.8841 41.9657 40.367 42.3017 39.6433 42.5834C39.0976 42.7962 38.276 43.0479 36.7647 43.1166C35.1308 43.1918 34.64 43.2068 30.5006 43.2068C26.3612 43.2068 25.8718 43.1918 24.2384 43.1166ZM24.11 15.0939C22.4599 15.169 21.3323 15.4307 20.3476 15.8138C19.3278 16.2095 18.4645 16.7403 17.6017 17.6016C16.739 18.4629 16.2095 19.3276 15.8138 20.3474C15.4307 21.3327 15.169 22.4596 15.0939 24.1097C15.0175 25.7623 15 26.2907 15 30.5C15 34.7093 15.0175 35.2377 15.0939 36.8903C15.169 38.5405 15.4307 39.6673 15.8138 40.6526C16.2095 41.6718 16.7392 42.5374 17.6017 43.3984C18.4643 44.2593 19.3278 44.7894 20.3476 45.1862C21.3342 45.5694 22.4599 45.831 24.11 45.9061C25.7636 45.9813 26.2911 46 30.5006 46C34.7101 46 35.2385 45.9825 36.8912 45.9061C38.5415 45.831 39.6683 45.5694 40.6537 45.1862C41.6728 44.7894 42.5368 44.2597 43.3995 43.3984C44.2622 42.5371 44.7906 41.6718 45.1874 40.6526C45.5706 39.6673 45.8335 38.5404 45.9074 36.8903C45.9825 35.2364 46 34.7093 46 30.5C46 26.2907 45.9825 25.7623 45.9074 24.1097C45.8322 22.4595 45.5706 21.3321 45.1874 20.3474C44.7906 19.3282 44.2608 18.4643 43.3995 17.6016C42.5382 16.739 41.6728 16.2095 40.6549 15.8138C39.6683 15.4307 38.5414 15.1678 36.8925 15.0939C35.2397 15.0187 34.7113 15 30.5019 15C26.2924 15 25.7636 15.0175 24.11 15.0939Z" fill="#131317"/>
</svg>
