<svg width="84" height="25" viewBox="0 0 84 25" fill="none" xmlns="http://www.w3.org/2000/svg">
<path d="M30.05 10.5444H29.6C28.85 10.5444 28.25 11.2104 28.25 12.0428C28.25 12.8753 28.85 13.5413 29.6 13.5413H30.05C30.8 13.5413 31.4 12.8753 31.4 12.0428C31.35 11.2104 30.8 10.5444 30.05 10.5444Z" fill="black"/>
<path d="M41.45 10.5444H41C40.25 10.5444 39.65 11.2104 39.65 12.0428C39.65 12.8753 40.25 13.5413 41 13.5413H41.45C42.2 13.5413 42.8 12.8753 42.8 12.0428C42.75 11.2104 42.2 10.5444 41.45 10.5444Z" fill="black"/>
<path d="M24.3501 10.5444H23.9001C23.1501 10.5444 22.55 11.2104 22.55 12.0428C22.55 12.8753 23.1501 13.5413 23.9001 13.5413H24.3501C25.1001 13.5413 25.7001 12.8753 25.7001 12.0428C25.6501 11.2104 25.1001 10.5444 24.3501 10.5444Z" fill="black"/>
<path d="M35.7499 10.5444H35.2999C34.5499 10.5444 33.95 11.2104 33.95 12.0428C33.95 12.8753 34.5499 13.5413 35.2999 13.5413H35.7499C36.4999 13.5413 37.0999 12.8753 37.0999 12.0428C37.0499 11.2104 36.4999 10.5444 35.7499 10.5444Z" fill="black"/>
<path d="M18.65 10.5444H18.2C17.45 10.5444 16.85 11.2104 16.85 12.0428C16.85 12.8753 17.45 13.5413 18.2 13.5413H18.65C19.4 13.5413 20 12.8753 20 12.0428C19.95 11.2104 19.4 10.5444 18.65 10.5444Z" fill="black"/>
<path d="M7.24993 10.5444H6.79994C6.04994 10.5444 5.44995 11.2104 5.44995 12.0428C5.44995 12.8753 6.04994 13.5413 6.79994 13.5413H7.24993C7.99992 13.5413 8.59991 12.8753 8.59991 12.0428C8.54992 11.2104 7.99992 10.5444 7.24993 10.5444Z" fill="black"/>
<path d="M12.95 10.5444H12.5C11.75 10.5444 11.15 11.2104 11.15 12.0428C11.15 12.8753 11.75 13.5413 12.5 13.5413H12.95C13.7 13.5413 14.3 12.8753 14.3 12.0428C14.25 11.2104 13.7 10.5444 12.95 10.5444Z" fill="black"/>
<path d="M47.15 10.5444H46.7C45.95 10.5444 45.35 11.2104 45.35 12.0428C45.35 12.8753 45.95 13.5413 46.7 13.5413H47.15C47.9 13.5413 48.5 12.8753 48.5 12.0428C48.45 11.2104 47.9 10.5444 47.15 10.5444Z" fill="black"/>
<path d="M75.65 13.5413C76.4 13.5413 77 12.8753 77 12.0428C77 11.2104 76.4 10.5444 75.65 10.5444H75.2C74.45 10.5444 73.85 11.2104 73.85 12.0428C73.85 12.8753 74.45 13.5413 75.2 13.5413H75.65Z" fill="black"/>
<path d="M71.25 12.0428C71.25 11.2104 70.65 10.5444 69.9 10.5444H69.5C68.75 10.5444 68.15 11.2104 68.15 12.0428C68.15 12.8753 68.75 13.5413 69.5 13.5413H69.95C70.65 13.5413 71.25 12.8753 71.25 12.0428Z" fill="black"/>
<path d="M58.55 10.5444H58.1C57.35 10.5444 56.75 11.2104 56.75 12.0428C56.75 12.8753 57.35 13.5413 58.1 13.5413H58.55C59.3 13.5413 59.9 12.8753 59.9 12.0428C59.85 11.2104 59.3 10.5444 58.55 10.5444Z" fill="black"/>
<path d="M52.8501 10.5444H52.4001C51.6501 10.5444 51.05 11.2104 51.05 12.0428C51.05 12.8753 51.6501 13.5413 52.4001 13.5413H52.8501C53.6001 13.5413 54.2001 12.8753 54.2001 12.0428C54.1501 11.2104 53.6001 10.5444 52.8501 10.5444Z" fill="black"/>
<path d="M64.2499 10.5444H63.7999C63.0499 10.5444 62.45 11.2104 62.45 12.0428C62.45 12.8753 63.0499 13.5413 63.7999 13.5413H64.2499C64.9999 13.5413 65.5999 12.8753 65.5999 12.0428C65.5499 11.2104 64.9499 10.5444 64.2499 10.5444Z" fill="black"/>
<path d="M1.55001 10.5444H1.35001C0.600005 10.5444 0 11.2104 0 12.0428C0 12.8753 0.600005 13.5413 1.35001 13.5413H1.55001C2.30002 13.5413 2.90002 12.8753 2.90002 12.0428C2.85002 11.2104 2.30002 10.5444 1.55001 10.5444Z" fill="black"/>
<path d="M72.35 0L70.5 2.1644L79.6499 11.599C79.5999 11.7655 79.5499 11.8765 79.5499 12.043C79.5499 12.2095 79.5999 12.376 79.5999 12.4869L70.45 21.9215L72.25 24.0859L83.9999 12.043L72.35 0Z" fill="black"/>
</svg>
